<svg width="18" height="18" viewBox="0 0 18 18" fill="none" xmlns="http://www.w3.org/2000/svg">
<path d="M16.2 13.65L9.75001 8.8125V8.13C10.9875 7.7625 11.85 6.5025 11.5725 5.0925C11.3775 4.11 10.5975 3.2925 9.61501 3.0675C7.90501 2.6775 6.37501 3.975 6.37501 5.625H7.87501C7.87501 5.0025 8.37751 4.5 9.00001 4.5C9.62251 4.5 10.125 5.0025 10.125 5.625C10.125 6.255 9.60751 6.765 8.97751 6.75C8.57251 6.7425 8.25001 7.0875 8.25001 7.4925V8.8125L1.80001 13.65C1.22251 14.085 1.53001 15 2.25001 15H9.00001H15.75C16.47 15 16.7775 14.085 16.2 13.65ZM4.50001 13.5L9.00001 10.125L13.5 13.5H4.50001Z" fill="#7C9AF2"/>
</svg>
